<svg width="23" height="23" viewBox="0 0 23 23" fill="none" xmlns="http://www.w3.org/2000/svg">
<path d="M12.6319 6.57871C15.2883 6.57871 16.4213 7.71175 16.4213 10.3681H18.9476C18.9476 6.29451 16.7055 4.05243 12.6319 4.05243V6.57871ZM16.9544 13.454C16.7117 13.2334 16.3927 13.1157 16.0649 13.1259C15.737 13.136 15.426 13.2731 15.1973 13.5083L12.1746 16.6169C11.4471 16.478 9.98436 16.022 8.47869 14.5201C6.97302 13.0132 6.51703 11.5467 6.38187 10.8241L9.48794 7.80017C9.72341 7.5717 9.86074 7.26058 9.87088 6.93265C9.88101 6.60472 9.76316 6.28572 9.54226 6.04314L4.87494 0.910992C4.65395 0.667656 4.3468 0.520055 4.01873 0.499536C3.69066 0.479017 3.36751 0.587196 3.11791 0.801099L0.376895 3.15181C0.158512 3.37098 0.0281657 3.66269 0.0105834 3.97159C-0.00836377 4.28737 -0.369622 11.7677 5.43073 17.5706C10.4909 22.6295 16.8293 22.9996 18.575 22.9996C18.8301 22.9996 18.9868 22.992 19.0285 22.9895C19.3373 22.9722 19.6289 22.8412 19.847 22.6219L22.1964 19.8796C22.4105 19.6302 22.5189 19.3071 22.4986 18.979C22.4783 18.651 22.3309 18.3437 22.0878 18.1226L16.9544 13.454Z" fill="#21B82F"/>
</svg>
